
<svg version="1.1" xmlns="http://www.w3.org/2000/svg" xmlns:xlink="http://www.w3.org/1999/xlink" x="0px" y="0px" viewBox="0 0 1000 1000" enable-background="new 0 0 1000 1000" xml:space="preserve">
<metadata> Svg Vector Icons : http://www.onlinewebfonts.com/icon </metadata>
<g><g transform="translate(0.000000,512.000000) scale(0.100000,-0.100000)"><path d="M4732.3,5013.9C3106.6,4925.7,1613.2,4017,777.4,2604.1c-937.5-1583.5-899.1-3583,97.8-5130.1c187.9-291.4,391.1-540.6,665.2-814.8c2139.5-2145.2,5665-1855.7,7444,609.6c1129.2,1562.4,1221.2,3675,235.8,5339.1c-412.2,697.8-1033.3,1319-1731.1,1731.1C6660.9,4829.8,5694.7,5067.5,4732.3,5013.9z M5581.6,4613.2C7347.2,4404.2,8854,3104.5,9362,1356.1c115-400.7,164.9-774.5,164.9-1236.5c0-728.5-141.9-1347.7-462-2003.3c-711.2-1453.1-2177.8-2425.1-3795.8-2519c-1696.6-97.8-3276.3,738.1-4160.1,2202.7C800.4-1688.2,583.8-1069,505.2-465.1c-40.3,310.6-40.3,851.2,0,1169.4c235.8,1827,1572,3337.6,3368.3,3805.4C4419.8,4651.5,4970,4686,5581.6,4613.2z"/><path d="M3735.4,435.9c-1177.1-1177.1-1179-1177.1-1179-1257.6c0-65.2,11.5-88.2,65.2-136.1c130.4-116.9,78.6-159.1,1290.2,1052.5l1088.9,1088.9L6093.4,90.8C7168.9-984.7,7186.2-1001.9,7260.9-1001.9c138,0,228.1,138,166.8,253.1c-15.3,28.8-548.3,573.2-1184.7,1209.7L5087,1614.9h-86.3h-86.3L3735.4,435.9z"/></g></g>
</svg>